<?xml version="1.0" standalone="no"?>
<!DOCTYPE svg PUBLIC "-//W3C//DTD SVG 20010904//EN"
 "http://www.w3.org/TR/2001/REC-SVG-20010904/DTD/svg10.dtd">
<svg version="1.0" xmlns="http://www.w3.org/2000/svg"
 width="96.000000pt" height="96.000000pt" viewBox="0 0 96.000000 96.000000"
 preserveAspectRatio="xMidYMid meet">

<g transform="translate(0.000000,96.000000) scale(0.100000,-0.100000)"
fill="#000000" stroke="none">
<path d="M386 864 c-72 -23 -149 -103 -172 -179 -22 -76 -15 -141 26 -239 33
-80 143 -253 204 -321 l36 -40 36 40 c19 22 66 86 104 143 164 246 181 403 56
527 -80 80 -178 103 -290 69z m175 -204 c80 -61 103 -100 59 -100 -18 0 -20
-7 -20 -60 l0 -60 -40 0 -40 0 0 60 0 60 -40 0 -40 0 0 -60 0 -60 -40 0 -40 0
0 60 c0 53 -2 60 -20 60 -43 0 -21 38 58 99 42 33 78 60 80 60 2 1 39 -26 83
-59z"/>
</g>
</svg>
