<svg height="512" viewBox="0 0 64 64" width="512" xmlns="http://www.w3.org/2000/svg">
    <g data-name="Filled outline" id="Filled_outline">
        <path d="m46 33h12v28h-12z" fill="#c88645" />
        <path d="m6 33h40v28h-40z" fill="#c88645" />
        <path d="m46 33h-40l6-14h40z" fill="#c88645" />
        <path d="m58 33h-12l6-14z" fill="#c88645" />
        <path d="m21 41h10a4 4 0 0 1 4 4v2a0 0 0 0 1 0 0h-18a0 0 0 0 1 0 0v-2a4 4 0 0 1 4-4z"
            fill="#ffd782" />
        <path d="m19 47h14v4h-14z" fill="#66342e" />
        <path d="m17 51h18v4h-18z" fill="#ffd782" />
        <path d="m12 3v16h40v-16zm27 12h-14a4 4 0 0 1 0-8h14a4 4 0 0 1 0 8z" fill="#c88645" />
        <path
            d="m58.924 32.625c-.002-.006-5.924-13.825-5.924-13.825v-15.8a1 1 0 0 0 -1-1h-40a1 1 0 0 0 -1 1v15.8s-5.922 13.819-5.924 13.825a1.909 1.909 0 0 0 -.076.375v28a1 1 0 0 0 1 1h52a1 1 0 0 0 1-1v-28a1.909 1.909 0 0 0 -.076-.375zm-2.441-.625h-8.966l4.483-10.461zm-43.483-28h38v14h-38zm32 56h-38v-26h38zm.341-28h-37.824l5.142-12h37.824zm11.659 28h-10v-26h10z" />
        <path
            d="m17 56h18a1 1 0 0 0 1-1v-4a1 1 0 0 0 -1-1h-1v-2h1a1 1 0 0 0 1-1v-2a5.006 5.006 0 0 0 -5-5h-10a5.006 5.006 0 0 0 -5 5v2a1 1 0 0 0 1 1h1v2h-1a1 1 0 0 0 -1 1v4a1 1 0 0 0 1 1zm1-11a3 3 0 0 1 3-3h10a3 3 0 0 1 3 3v1h-16zm14 3v2h-12v-2zm-14 4h16v2h-16z" />
        <path
            d="m39 6h-14a5 5 0 0 0 0 10h14a5 5 0 0 0 0-10zm0 8h-14a3 3 0 0 1 0-6h14a3 3 0 0 1 0 6z" />
    </g>
</svg>